<svg width="76" height="76" viewBox="0 0 76 76" fill="none" xmlns="http://www.w3.org/2000/svg">
<path d="M35.928 1.57882C37.1026 0.068531 39.3853 0.0685277 40.5599 1.57882L44.701 6.90315C45.5075 7.94013 46.905 8.3146 48.122 7.81981L54.3704 5.27933C56.1428 4.5587 58.1197 5.70002 58.3818 7.5953L59.3059 14.2768C59.4859 15.5781 60.5089 16.6012 61.8102 16.7812L68.4918 17.7053C70.387 17.9674 71.5284 19.9442 70.8077 21.7166L68.2673 27.9651C67.7725 29.182 68.1469 30.5796 69.1839 31.3861L74.5082 35.5271C76.0185 36.7018 76.0185 38.9844 74.5082 40.1591L69.1839 44.3001C68.1469 45.1066 67.7725 46.5042 68.2673 47.7211L70.8077 53.9695C71.5284 55.742 70.387 57.7188 68.4918 57.9809L61.8102 58.905C60.5089 59.085 59.4859 60.108 59.3059 61.4094L58.3818 68.0909C58.1197 69.9862 56.1428 71.1275 54.3704 70.4069L48.122 67.8664C46.905 67.3716 45.5075 67.746 44.701 68.783L40.5599 74.1074C39.3853 75.6177 37.1026 75.6177 35.928 74.1074L31.787 68.783C30.9804 67.746 29.5829 67.3716 28.3659 67.8664L22.1175 70.4069C20.3451 71.1275 18.3683 69.9862 18.1061 68.0909L17.1821 61.4094C17.0021 60.108 15.979 59.085 14.6777 58.905L7.99618 57.9809C6.1009 57.7188 4.95958 55.742 5.68021 53.9695L8.22069 47.7211C8.71548 46.5042 8.34101 45.1066 7.30403 44.3001L1.9797 40.1591C0.46941 38.9844 0.469407 36.7018 1.9797 35.5271L7.30403 31.3861C8.34101 30.5796 8.71548 29.182 8.22069 27.9651L5.68021 21.7166C4.95958 19.9442 6.1009 17.9674 7.99617 17.7053L14.6777 16.7812C15.979 16.6012 17.0021 15.5781 17.1821 14.2768L18.1061 7.5953C18.3683 5.70003 20.3451 4.5587 22.1175 5.27933L28.3659 7.81981C29.5829 8.3146 30.9804 7.94014 31.787 6.90315L35.928 1.57882Z" fill="#FEA27B"/>
</svg>
