<svg width="88" height="89" viewBox="0 0 88 89" fill="none" xmlns="http://www.w3.org/2000/svg">
<path d="M76.9374 46.2687C80.5251 50.794 78.7281 57.5007 73.3584 59.6258C70.1658 60.8894 68.0289 63.93 67.9226 67.362C67.7449 73.0965 62.112 77.0549 56.6565 75.2791L56.4688 75.218C53.1934 74.1518 49.5972 75.107 47.2826 77.658C43.3964 81.9412 36.4735 81.3034 33.3844 76.414C31.5422 73.4981 28.098 71.9164 24.681 72.3853C18.9826 73.1674 14.0017 68.3018 14.8005 62.6058C15.278 59.2007 13.662 55.8125 10.7377 54.0039C5.85044 50.9813 5.18191 44.0571 9.47859 40.2414C12.045 37.9623 13.0067 34.3732 11.9237 31.1162C10.1105 25.6634 14.1516 20.0011 19.8953 19.8271C23.3321 19.723 26.4258 17.5967 27.7148 14.4091C29.871 9.0767 36.6174 7.35347 41.1613 10.88C43.8861 12.9946 47.6597 13.3469 50.7131 11.7427C55.8329 9.05295 62.1472 11.9621 63.3712 17.6145C64.1002 20.981 66.737 23.6064 70.1066 24.3207L70.2997 24.3617C75.9123 25.5515 78.8113 31.796 76.0979 36.8511C74.474 39.8764 74.8043 43.5781 76.9374 46.2687Z" fill="url(#paint0_linear)"/>
<defs>
<linearGradient id="paint0_linear" x1="84.1431" y1="55.3575" x2="2.09962" y2="33.374" gradientUnits="userSpaceOnUse">
<stop stop-color="#E65B62"/>
<stop offset="1" stop-color="#E65B62" stop-opacity="0.88"/>
</linearGradient>
</defs>
</svg>
