<svg width="109" height="109" viewBox="0 0 109 109" fill="none" xmlns="http://www.w3.org/2000/svg">
<path fill-rule="evenodd" clip-rule="evenodd" d="M8.01114 41.5904C5.37455 51.4303 11.214 61.5445 21.0539 64.1811L31.7891 67.0576L28.6466 78.7854C26.01 88.6253 31.8495 98.7395 41.6894 101.376C51.5292 104.013 61.6434 98.1732 64.28 88.3334L67.4225 76.6055L78.8851 79.6769C88.725 82.3135 98.8392 76.4741 101.476 66.6342C104.112 56.7943 98.2729 46.6802 88.4331 44.0436L76.9704 40.9722L79.7758 30.5021C82.4124 20.6622 76.573 10.548 66.7331 7.91145C56.8932 5.27486 46.7791 11.1143 44.1425 20.9542L41.337 31.4242L30.6018 28.5477C20.7619 25.9111 10.6477 31.7506 8.01114 41.5904Z" fill="#CBE37A"/>
</svg>
